<?xml version="1.0" encoding="UTF-8"?>
<svg xmlns="http://www.w3.org/2000/svg" version="1.1" viewBox="0 0 1000 1000">
  <defs>
    <style>
      .cls-1 {
        fill: #59294e;
      }

      .cls-2 {
        fill: #60c3ba;
      }
    </style>
  </defs>
  <!-- Generator: Adobe Illustrator 28.6.0, SVG Export Plug-In . SVG Version: 1.1.0 Build 98)  -->
  <g>
    <g id="Layer_2">
      <g>
        <g>
          <path class="cls-1" d="M417,322.8h26.9c2.3,0,4.1,1.8,4.1,4v26.9c0,2.3-1.8,4-4.1,4h-26.9c-2.3,0-4.1-1.8-4.1-4v-26.9c0-2.2,1.9-4,4.1-4"/>
          <path class="cls-1" d="M455.9,287.2h24.3c2,0,3.5,1.6,3.5,3.5v24.3c0,2-1.6,3.5-3.5,3.5h-24.3c-2,0-3.5-1.6-3.5-3.5v-24.3c0-1.9,1.5-3.5,3.5-3.5"/>
          <path class="cls-1" d="M494.5,251.5h21.8c1.7,0,3,1.4,3,3v21.8c0,1.7-1.4,3-3,3h-21.8c-1.7,0-3-1.4-3-3v-21.8c0-1.6,1.3-3,3-3"/>
          <path class="cls-1" d="M532.8,291.2h19.2c1.4,0,2.5,1.1,2.5,2.5v19.2c0,1.4-1.1,2.5-2.5,2.5h-19.2c-1.4,0-2.5-1.1-2.5-2.5v-19.2c0-1.3,1.1-2.5,2.5-2.5"/>
          <path class="cls-1" d="M571.3,330.4h16.7c1.1,0,2,.9,2,2v16.7c0,1.1-.9,2-2,2h-16.7c-1.1,0-2-.9-2-2v-16.7c0-1.1.9-2,2-2"/>
          <path class="cls-1" d="M610.2,369.6h14.3c.8,0,1.5.7,1.5,1.5v14.3c0,.8-.7,1.5-1.5,1.5h-14.3c-.8,0-1.5-.7-1.5-1.5v-14.3c0-.9.7-1.5,1.5-1.5"/>
          <path class="cls-1" d="M573.9,408.7h11.9c.6,0,1,.4,1,1v11.9c0,.6-.4,1-1,1h-11.9c-.6,0-1-.4-1-1v-11.9c0-.6.5-1,1-1"/>
          <path class="cls-1" d="M537.6,447.8h9.6c.3,0,.5.2.5.5v9.6c0,.3-.2.5-.5.5h-9.6c-.3,0-.5-.2-.5-.5v-9.6c0-.2.2-.5.5-.5"/>
          <path class="cls-1" d="M501.3,486.9h7.2q0,0,0,0v7.2q0,0,0,0h-7.2q0,0,0,0v-7.2c0,0,0,0,0,0"/>
          <path class="cls-2" d="M542.3,356.9c-2.3,0-4.5.4-6.5,1-6.3,1.1-12.3-5.3-10.5-11.5h0c.5-1.8.8-3.7.8-5.7,0-11.7-9.6-21.2-21.2-21.2s-21.2,9.6-21.2,21.2,3.2,9.6-1.8,14.5c-5,5-8.9,1.8-14.5,1.8-11.7,0-21.2,9.6-21.2,21.2h0c0,5.5,3.2,9.6-1.8,14.6s-9.1,1.8-14.6,1.8-3.9.3-5.7.8h0c-7.7,1.2-10.4-2.5-11.5-7.4v-25.3c0-2.6-2-4.6-4.6-4.6h-29.5c-2.6,0-4.6,2-4.6,4.6v29.5c0,2.6,2,4.6,4.6,4.6h19.9c6.8.6,13.5,3.1,11,13.3h0c-.5,1.9-.8,3.8-.8,5.8,0,9.1,5.8,16.9,13.9,19.9,2.3.8,4.7,1.3,7.2,1.3h0c11.7,0,21.2-9.6,21.2-21.2s-3.4-10,1.5-15c4.9-4.9,9.4-1.5,15-1.5,11.7,0,21.2-9.6,21.2-21.2h0c0-5.8-3.6-9.9,1.4-14.9,5-5,9.2-1.4,14.9-1.4s3.9-.3,5.8-.8h0c6.3-2.2,12.9,3.5,11.7,10-.8,2.2-1.2,4.5-1.2,7h0c0,5.6,3.2,9.6-1.8,14.5-5,5-8.9,1.8-14.5,1.8-11.7,0-21.2,9.6-21.2,21.2h0c0,5.5,3.2,9.6-1.8,14.6-5,5-8.8,1.7-14.5,1.7s-11.1,2.3-15,6.2-6.3,9.2-6.3,15c0,11.7,9.6,21.2,21.2,21.2s21.2-9.6,21.2-21.2-3.6-9.9,1.3-14.8,9.4-1.5,15-1.5h0c11.7,0,21.2-9.6,21.2-21.2h0c0-5.8-3.6-9.9,1.4-14.9,5-5,9.2-1.4,14.9-1.4h0c11.7,0,21.2-9.6,21.2-21.2h0c-.1-11.8-9.7-21.3-21.4-21.3"/>
        </g>
        <g>
          <path class="cls-1" d="M730.9,642.6c-3.2,16.4-14.1,24.6-32.4,24.6h-284.3c-16.6,0-25.8-7.4-32.3-17.8-1.3,1.8-2.8,3.6-4.5,5.2-7.9,7.9-18.7,12.8-30.7,12.8s-22.8-4.9-30.7-12.8-12.8-18.7-12.8-30.7v-26.2h-5.2c-15,0-24.6,13.2-24.6,35v32c0,1.3-1.1,2.4-2.4,2.4h-17.7c-1.3,0-2.4-1.1-2.4-2.4v-36.8c0-32.3,17.2-53.3,47.1-53.3h44.3c33.4.3,42.3,23.1,50.8,44.8,5,12.7,9.7,24.8,20.8,24.8h96.3c-2.6-5.1-4.8-10.8-7.1-16.5-5.8-14.7-11.8-30.1-29.6-30.2h-65.9c-3.9,0-5.8-4.7-3.1-7.4l55.8-55.8c.2-.2.5-.3.8-.3h29.3c1,0,1.5,1.2.8,1.9l-38.6,38.7h21.1c33.4.2,42.3,23.1,50.9,44.7,5,12.7,9.7,24.8,20.8,24.8h96.2c-2.6-5.1-4.8-10.8-7.1-16.5-5.8-14.7-11.8-30.1-29.6-30.2h-54.7c-1.3,0-2.4-1.1-2.4-2.4v-18.1c0-1.3,1.1-2.4,2.4-2.4,18.2,0,36.6,0,54.8,0,33.4.2,42.3,23.1,50.9,44.7,5.1,13.1,10,25.5,21.8,24.8,5,0,10.1,0,15.1-.1,8,.9,12.7-1.8,14.9-6.4,2.8-5.8,1.6-57.8,1.6-60.7s1.1-2.4,2.4-2.4h17.8c1.3,0,2.4,1.1,2.4,2.4v46.3c0,6.4.2,12.7-1.1,19.1M717.6,544c2.1,9.3-6.1,17.4-15.3,15.3-4.7-1-8.5-4.8-9.5-9.5-2.1-9.3,6.1-17.4,15.3-15.3,4.7,1,8.4,4.8,9.5,9.5M748.5,544c2.1,9.3-6.1,17.4-15.3,15.3-4.7-1-8.5-4.8-9.5-9.5-2.1-9.3,6.1-17.4,15.3-15.3,4.7,1,8.4,4.8,9.5,9.5M342.4,597.7h-16.1v26.2c0,5.6,2.3,10.7,6,14.5,3.7,3.7,8.8,6,14.5,6s10.7-2.3,14.5-6c3.7-3.7,6-8.8,6-14.5,0-14.2-9.9-26.1-24.8-26.2"/>
          <path class="cls-2" d="M692.9,707.9c0-.4.2-.6.7-.6h4.3c.5,0,.9.2,1.1.6l13.5,27.3h.2l13.2-27.3c.1-.4.5-.6,1.1-.6h4.3c.4,0,.7.2.7.6v39.3c0,.4-.2.6-.7.6h-4.2c-.4,0-.7-.2-.7-.6v-28.2h-.2l-11.2,22.3c-.2.5-.6.7-1.2.7h-2.8c-.6,0-1-.2-1.2-.7l-11.2-22.3h-.2v28.2c0,.4-.2.6-.7.6h-4.2c-.4,0-.7-.2-.7-.6v-39.3Z"/>
          <path class="cls-2" d="M647.2,731.4c0,1.1-.1,2-.2,2.8-.1.8-.2,1.5-.4,2s-.2.9-.4,1.3c-.7,2-1.8,3.4-3.4,4.5-1.6,1-3.6,1.5-6.1,1.5s-4.5-.5-6.1-1.5c-1.6-1-2.7-2.6-3.4-4.5-.1-.4-.2-.8-.4-1.3s-.2-1.2-.4-2c-.1-.8-.2-1.8-.2-2.8,0-1.1,0-2.3,0-3.8s0-2.8,0-3.8c0-1.1.1-2,.2-2.8.1-.8.2-1.5.4-2s.2-.9.4-1.3c.7-2,1.8-3.4,3.4-4.5,1.6-1,3.6-1.5,6.1-1.5s4.6.5,6.1,1.5c1.6,1,2.8,2.6,3.4,4.5.1.4.2.8.4,1.3s.2,1.2.4,2c.1.8.2,1.8.2,2.8,0,1.1,0,2.3,0,3.8s0,2.7,0,3.8M653.1,723.3c0-1.2-.1-2.2-.2-3.1s-.2-1.6-.4-2.3c-.1-.7-.4-1.2-.6-1.8-1.2-3.1-3.1-5.5-5.7-7.1s-5.8-2.4-9.7-2.4-7,.8-9.6,2.4c-2.6,1.6-4.5,3.9-5.7,7.1-.2.6-.4,1.2-.6,1.8-.1.7-.3,1.4-.4,2.3,0,.9-.1,1.9-.2,3.1,0,1.2,0,2.6,0,4.3s0,3.1,0,4.3c0,1.2.1,2.2.2,3.1s.2,1.6.4,2.3c.1.7.4,1.2.6,1.8,1.2,3.1,3.1,5.5,5.7,7.1s5.8,2.4,9.6,2.4,7.1-.8,9.7-2.4,4.5-3.9,5.7-7.1c.2-.6.4-1.2.6-1.8.1-.7.3-1.4.4-2.3,0-.9.1-1.9.2-3.1,0-1.2,0-2.6,0-4.3s0-3.1,0-4.3"/>
          <path class="cls-2" d="M547,707.9c0-.4.2-.6.7-.6h4.6c.4,0,.7.2.7.6v21.1l19.1-21.2c.3-.4.6-.5,1.1-.5h5.4c.2,0,.4,0,.4.2s0,.3-.1.5l-14,15.2,15.4,23.9c.3.4.1.7-.4.7h-5.3c-.4,0-.7-.1-.9-.5l-12.6-19.9-8,8.7v11.2c0,.4-.2.6-.7.6h-4.6c-.4,0-.7-.2-.7-.6v-39.3Z"/>
          <path class="cls-2" d="M482.5,733.4l7.2-18.3h.1l7.1,18.3h-14.4ZM508.2,747.2l-15.4-39.3c-.1-.4-.4-.6-.9-.6h-4.3c-.4,0-.7.2-.8.6l-15.6,39.3c-.1.4,0,.6.4.6h4.7c.4,0,.7-.2.9-.6l3.4-8.8h18.2l3.4,8.8c.1.4.4.6.9.6h4.7c.4,0,.5-.2.4-.6"/>
          <path class="cls-2" d="M399.5,707.9c0-.4.2-.6.7-.6h4.6c.4,0,.7.2.7.6v16.6c0,.2.1.4.4.4h19.5c.3,0,.4-.1.4-.4v-16.6c0-.4.2-.6.7-.6h4.6c.4,0,.7.2.7.6v39.3c0,.4-.2.6-.7.6h-4.6c-.4,0-.7-.2-.7-.6v-17c0-.2-.1-.4-.4-.4h-19.5c-.3,0-.4.1-.4.4v17c0,.4-.2.6-.7.6h-4.6c-.4,0-.7-.2-.7-.6v-39.3Z"/>
          <path class="cls-2" d="M334.3,733.4l7.2-18.3h.1l7.1,18.3h-14.4ZM360.1,747.2l-15.5-39.3c-.1-.4-.4-.6-.9-.6h-4.3c-.4,0-.7.2-.8.6l-15.6,39.3c-.1.4,0,.6.4.6h4.7c.4,0,.7-.2.9-.6l3.4-8.8h18.2l3.4,8.8c.1.4.4.6.9.6h4.7c.4,0,.5-.2.4-.6"/>
          <path class="cls-2" d="M265.2,747.8c-.4,0-.7-.2-.7-.6v-34.6c0-.2-.1-.4-.4-.4h-12.3c-.4,0-.7-.2-.7-.6v-3.7c0-.4.2-.6.7-.6h31.4c.4,0,.7.2.7.6v3.7c0,.4-.2.6-.7.6h-12.3c-.3,0-.4.1-.4.4v34.6c0,.4-.2.6-.7.6h-4.7Z"/>
        </g>
      </g>
    </g>
  </g>
</svg>