<svg fill="none" height="860" viewBox="-.26 -.45935938 776.03 267.74935938" width="2500" xmlns="http://www.w3.org/2000/svg"><path d="m118.66 266.03-1.29.56c-.38.15-.79.22-1.2.19a2.33 2.33 0 0 1 -2.12-1.68l-4.88-11.88h-20.09l-4.88 11.88a2.33 2.33 0 0 1 -2.12 1.68c-.41.03-.82-.03-1.19-.19l-1.29-.56a2.327 2.327 0 0 1 -1.66-2.15c.04-.49.16-.96.37-1.4l15.29-37.27a4.203 4.203 0 0 1 3.87-2.99h3.32c1.79.06 3.34 1.26 3.87 2.99l15.3 37.28c.21.44.33.92.37 1.4-.04 1-.71 1.87-1.66 2.15zm-19.54-37.36-7.47 18.31h14.93zm97.78 37.83h-1.29c-1.53 0-2.76-1.25-2.77-2.8v-29.52l-9.22 13.08c-.83 1.12-1.56 2.06-2.95 2.06h-.9c-1.38 0-2.12-.94-2.95-2.06l-9.22-13.08v29.52c0 1.55-1.24 2.8-2.77 2.8h-1.29c-1.49.04-2.73-1.16-2.77-2.68v-38.97c-.06-1.38.99-2.55 2.35-2.62h1.89c1.21.21 2.27.96 2.86 2.06l12.35 17.65 12.45-17.65c.64-.91 1.56-2.06 2.76-2.06h1.65c1.36-.06 2.52 1.01 2.58 2.39v39.08c.03 1.51-1.15 2.77-2.65 2.8h-.12zm74.2 0h-28.41c-1.39.04-2.54-1.08-2.58-2.48v-39.18a2.558 2.558 0 0 1 2.49-2.62h27.19c1.42-.11 2.65.97 2.76 2.4v1.24c0 1.44-1.14 2.62-2.56 2.63h-23.07v12.89h21.01c1.41-.11 2.65.96 2.76 2.39v1.25c0 1.44-1.13 2.61-2.55 2.62h-21.22v12.61h24.15c1.42-.11 2.65.96 2.76 2.4v1.25c0 1.44-1.13 2.61-2.55 2.62h-.22.02zm68.75 0h-22.76c-1.41.11-2.65-.96-2.76-2.39v-1.25c0-1.44 1.13-2.61 2.55-2.62h21.69c3.13 0 3.96-3.27 3.96-5.32v-3.73c.16-2.06-1.36-3.86-3.39-4.02-.19-.02-.38-.02-.57 0h-15.14c-5.05-.11-9.07-4.32-9.02-9.43v-5.8c.43-5.54 5.02-9.79 10.51-9.72h18.15c1.46-.12 2.73.98 2.85 2.46v1.18c-.02 1.47-1.2 2.64-2.65 2.62h-16.79c-2.53-.35-4.86 1.44-5.21 4-.03.25-.05.51-.04.76v3.46c.1 2.68 2.32 4.78 4.97 4.68h14.93c4.3-.23 7.98 3.11 8.21 7.47.02.31.01.62 0 .93v6.26c.6 5.14-3.03 9.8-8.1 10.4-.46.06-.93.08-1.4.06zm184.9-.46-1.01.46c-1.29.69-2.89.18-3.57-1.13-.01-.03-.03-.06-.04-.08l-8.67-17.65h-13.18v16.07c0 1.55-1.24 2.8-2.77 2.8h-1.29c-1.49.03-2.73-1.17-2.76-2.68v-39.24c-.02-1.28.99-2.33 2.25-2.34h.24l19.26-.28c5.44-.7 10.4 3.2 11.09 8.71.07.58.1 1.17.07 1.76v4.39c.25 4.31-2.29 8.28-6.27 9.81l7.67 15.6c.22.44.34.91.37 1.4.02 1.01-.51 1.94-1.38 2.43zm-7.19-32.41c.06-2.78-2.11-5.08-4.85-5.14h-9.25c-2.8-.05-5.11 2.21-5.16 5.05v7.86h13.73c2.93-.04 5.34-2.36 5.53-5.33zm220.8 15.2h-13.18v14.88c0 1.54-1.24 2.79-2.76 2.8h-1.29c-1.48.05-2.71-1.12-2.76-2.62v-38.15c0-2.59 1-3.53 2.47-3.53l19.26-.28c5.43-.7 10.4 3.2 11.09 8.71.07.58.1 1.17.07 1.76v5.58c.24 4.31-2.29 8.28-6.27 9.81-2.15.65-4.39 1-6.63 1.02zm6.09-15.2c.06-2.78-2.11-5.08-4.85-5.14h-9.23c-2.8-.05-5.11 2.22-5.16 5.06v9.02h13.72c2.94-.04 5.35-2.35 5.55-5.32v-3.62zm-152.31 32.87h-15.02c-5.67-.03-10.25-4.71-10.23-10.46v-23.52c.17-5.79 4.89-10.36 10.6-10.28h14.28c5.71-.09 10.43 4.49 10.6 10.28v23.54c-.01 5.74-4.57 10.4-10.23 10.46zm3.41-32.87c-.02-2.83-2.28-5.12-5.07-5.14h-11.72c-2.79 0-5.06 2.28-5.07 5.11v21.51c-.06 2.78 2.11 5.08 4.85 5.14h11.91c2.79 0 5.06-2.28 5.07-5.11v-21.51zm-490.42-159.23h-56.73c-8.51.57-15.87-5.97-16.43-14.6 0-.1-.01-.19-.02-.29v-13.22c0-9.54 6.41-15.24 17.13-15.24h72.01c7.11.36 13.16-5.18 13.51-12.39 0-.2.02-.39.02-.59v-3.93c-.14-7.32-6.1-13.14-13.32-13-.18 0-.36.01-.54.02h-77.65c-22.6-.34-41.53 17.28-43.11 40.14v22.14c-.26 21.26 16.5 38.72 37.47 39.05h57.79c6.16-.59 11.63 3.99 12.22 10.23.07.71.07 1.43 0 2.15v14.29c0 1.78-.34 17.37-12.22 17.37h-79.76c-7.02-.44-13.07 4.97-13.5 12.09-.02.3-.03.59-.02.89v3.93c-.05 7.13 5.62 12.95 12.65 13 .29 0 .58 0 .88-.02h84.69c23.84 0 39.23-16.87 39.23-42.98v-23.93c0-24.26-17.23-35.12-34.3-35.12v.02zm326.29-70.85-5-2.17a13.711 13.711 0 0 0 -11.08-.41 12.665 12.665 0 0 0 -6.5 7.86l-36.65 101.1a586.078 586.078 0 0 0 -10.1 31.29c-2.11-7.24-5.58-18.59-10.11-31.31l-36.66-101.04c-.98-3.44-3.35-6.31-6.52-7.9a13.758 13.758 0 0 0 -11.15.46l-4.87 2.12c-6.63 2.17-10.27 9.39-8.13 16.11.14.44.3.87.49 1.3l53.21 139.67c3.37 8.72 11.87 15.82 18.94 15.82h9.51c7.08 0 15.58-7.1 18.94-15.82l53.24-139.74c2.83-6.44-.03-13.98-6.38-16.84-.4-.18-.8-.34-1.21-.47l.04-.02zm-179.98 12.27c-3.36-8.72-11.86-15.82-18.93-15.82h-9.51c-7.08 0-15.57 7.1-18.94 15.82l-53.24 139.74c-2.83 6.44.03 13.98 6.38 16.84.4.18.8.34 1.21.47l5 2.17c2.04.87 4.22 1.35 6.43 1.39 1.6.01 3.19-.32 4.65-.99 3.16-1.58 5.52-4.43 6.5-7.86l36.65-101.09a582.96 582.96 0 0 0 10.1-31.3c2.11 7.24 5.58 18.59 10.11 31.32l36.63 101.04c.98 3.44 3.35 6.31 6.52 7.9 3.62 1.43 7.66 1.26 11.16-.46l4.87-2.12c6.63-2.17 10.27-9.39 8.13-16.11-.14-.44-.3-.87-.49-1.3l-53.21-139.66v.02zm352.59-12.27-5-2.17a13.711 13.711 0 0 0 -11.08-.41c-3.16 1.58-5.51 4.43-6.5 7.86l-36.65 101.1a586.078 586.078 0 0 0 -10.1 31.29c-2.11-7.24-5.58-18.59-10.11-31.31l-36.64-101.04c-.98-3.44-3.35-6.31-6.52-7.9a13.758 13.758 0 0 0 -11.15.46l-4.87 2.12c-6.63 2.17-10.27 9.39-8.13 16.11.14.44.3.87.49 1.3l53.21 139.67c3.37 8.72 11.87 15.82 18.94 15.82h9.51c7.08 0 15.57-7.1 18.94-15.82l53.24-139.74c2.83-6.44-.03-13.98-6.38-16.84-.4-.18-.8-.34-1.21-.47l.02-.02zm166 2.06-4.23-2.86a14.105 14.105 0 0 0 -7.97-2.64c-4.17.02-8.07 2.08-10.48 5.53l-43.07 60.57-42.76-60.62c-2.54-3.47-6.56-5.5-10.82-5.48-2.86.05-5.64.97-7.98 2.64l-4.23 2.86c-3.62 2.45-5.72 6.64-5.54 11.05-.15 2.93.68 5.83 2.36 8.23l52.97 73.82v64.03c-.09 7.48 5.82 13.62 13.2 13.71h5.26c7.38.09 13.44-5.9 13.53-13.38v-64.35l52.97-73.82c1.68-2.4 2.5-5.29 2.35-8.23.18-4.41-1.92-8.6-5.55-11.05h-.02zm-93.17 260.89-21.84.28c-6.04.51-11.35-4.04-11.85-10.17-.02-.28-.04-.57-.04-.86v-30.73c-.04-1.51 1.15-2.77 2.64-2.81h1.41c1.53 0 2.76 1.26 2.76 2.81v29.61c0 3.09 2.48 5.6 5.53 5.61h10.96c3.05-.01 5.52-2.52 5.53-5.61v-29.61c-.04-1.51 1.15-2.77 2.64-2.81h1.41c1.53 0 2.77 1.26 2.77 2.81v39.23c.08 1.16-.79 2.16-1.93 2.24zm-639.79-25.27h-14.25c-1.51 0-2.74 1.24-2.74 2.78v.7c0 1.53 1.23 2.78 2.74 2.78h10.16v7.15c0 3.09-2.48 5.6-5.53 5.6h-10.95c-3.05 0-5.53-2.51-5.53-5.61v-20.92c-.09-2.8 2.07-5.13 4.83-5.23h19.76c1.43 0 2.58-1.17 2.58-2.62v-.84c0-1.55-1.24-2.81-2.77-2.81h-20.82c-5.76 0-10.42 4.74-10.42 10.58v22.96c-.2 5.93 4.38 10.91 10.23 11.11.56.02 1.13 0 1.69-.08h1.38c3.11 0 7.87-.05 12.2-.12 5.66-.08 10.2-4.75 10.2-10.48v-12.17c0-1.53-1.23-2.78-2.74-2.78l-.02-.02zm410.91 0h-14.24c-1.51 0-2.74 1.24-2.74 2.78v.7c0 1.53 1.23 2.78 2.74 2.78h10.16v7.15c0 3.09-2.48 5.6-5.53 5.6h-10.97c-3.05 0-5.53-2.51-5.53-5.61v-20.92c-.09-2.8 2.08-5.14 4.84-5.23h19.75c1.42 0 2.58-1.17 2.58-2.61v-.84c0-1.55-1.24-2.81-2.77-2.81h-20.83c-5.76 0-10.42 4.74-10.42 10.58v22.96c-.19 5.93 4.4 10.9 10.25 11.1.55.02 1.1 0 1.64-.07h1.38c3.11 0 7.87-.05 12.2-.12 5.65-.08 10.2-4.75 10.2-10.48v-12.17c0-1.53-1.23-2.78-2.74-2.78h.03z" fill="#ba2733"/></svg>